{"title":"The Producers(1967)MPEG-4[DaScubaDude]","uid":14343701,"size":896955877,"categoryP":"video","categoryS":"movies","magnet":"?xt=urn:btih:92c54e9c4e94d2de1b0e54a54696d9bb4f3dbc66&amp;dn=The+Producers%281967%29MPEG-4%5BDaScubaDude%5D&amp;tr=udp%3A%2F%2Ftracker.leechers-paradise.org%3A6969&amp;tr=udp%3A%2F%2Fzer0day.ch%3A1337&amp;tr=udp%3A%2F%2Fopen.demonii.com%3A1337&amp;tr=udp%3A%2F%2Ftracker.coppersurfer.tk%3A6969&amp;tr=udp%3A%2F%2Fexodus.desync.com%3A6969","seeders":1,"leechers":1,"uploader":"dascuba","files":1,"time":1460770255,"description":"The Producers (1967)\r\nPG | 1h 28min | Comedy | 10 November 1968 (USA)\r\nProducers Max Bialystock and Leo Bloom make money by producing a sure-fire flop.\r\nDirector: Mel Brooks\r\nWriter: Mel Brooks\r\nStars: Zero Mostel, Gene Wilder, Dick Shawn\r\n\r\nGeneral\r\nComplete name                            : The ProducersTHEPRODUCERS_US_Title14.mp4\r\nFormat                                   : MPEG-4\r\nFormat profile                           : Base Media\r\nCodec ID                                 : isom\r\nFile size                                : 855 MiB\r\nDuration                                 : 1h 29mn\r\nOverall bit rate                         : 1 333 Kbps\r\nMovie name                               : THEPRODUCERS_US\r\nGenre                                    : Comedy\r\nWriting application                      : Lavf54.6.100\r\n\r\nVideo\r\nID                                       : 1\r\nFormat                                   : AVC\r\nFormat/Info                              : Advanced Video Codec\r\nFormat profile                           :   \r\nFormat settings, CABAC                   : No\r\nFormat settings, ReFrames                : 6 frames\r\nCodec ID                                 : avc1\r\nCodec ID/Info                            : Advanced Video Coding\r\nDuration                                 : 1h 29mn\r\nBit rate                                 : 1 199 Kbps\r\nWidth                                    : 720 pixels\r\nHeight                                   : 540 pixels\r\nDisplay aspect ratio                     : 4:3\r\nFrame rate mode                          : Constant\r\nFrame rate                               : 29.970 fps\r\nColor space                              : YUV\r\nChroma subsampling                       : 4:2:0\r\nBit depth                                : 8 bits\r\nScan type                                : Progressive\r\nBits/(Pixel*Frame)                       : 0.103\r\nStream size                              : 769 MiB (90%)\r\n\r\nAudio\r\nID                                       : 2\r\nFormat                                   : AAC\r\nFormat/Info                              : Advanced Audio Codec\r\nFormat profile                           : LC\r\nCodec ID                                 : 40\r\nDuration                                 : 1h 29mn\r\nBit rate mode                            : Constant\r\nBit rate                                 : 128 Kbps\r\nChannel(s)                               : 2 channels\r\nChannel positions                        : Front: L R\r\nSampling rate                            : 44.1 KHz\r\nCompression mode                         : Lossy\r\nStream size                              : 82.1 MiB (10%)","torrent":{"xt":"urn:btih:92c54e9c4e94d2de1b0e54a54696d9bb4f3dbc66","amp;dn":"The+Producers%281967%29MPEG-4%5BDaScubaDude%5D","amp;tr":["udp%3A%2F%2Ftracker.leechers-paradise.org%3A6969","udp%3A%2F%2Fzer0day.ch%3A1337","udp%3A%2F%2Fopen.demonii.com%3A1337","udp%3A%2F%2Ftracker.coppersurfer.tk%3A6969","udp%3A%2F%2Fexodus.desync.com%3A6969"],"infoHash":"92c54e9c4e94d2de1b0e54a54696d9bb4f3dbc66","infoHashBuffer":{"type":"Buffer","data":[146,197,78,156,78,148,210,222,27,14,84,165,70,150,217,187,79,61,188,102]},"announce":[],"urlList":[]}}